<svg xmlns="http://www.w3.org/2000/svg" version="1.1" xmlns:xlink="http://www.w3.org/1999/xlink" xmlns:svgjs="http://svgjs.dev/svgjs" viewBox="0 0 800 800"><symbol id="SvgjsSymbol1042"><polygon points="0,43.75 87.5,0 175,43.75 87.5,87.5"></polygon></symbol><symbol id="SvgjsSymbol1043"><polygon points="0,43.75 87.5,87.5 87.5,175 0,131.25"></polygon></symbol><symbol id="SvgjsSymbol1044"><polygon points="87.5,87.5 175,43.75 175,131.25 87.5,175"></polygon></symbol><g shape-rendering="crispEdges"><g><use xlink:href="#SvgjsSymbol1042" x="306.25" y="612.5" fill="#5955ff"></use><use xlink:href="#SvgjsSymbol1043" x="306.25" y="612.5" fill="#9583ff"></use><use xlink:href="#SvgjsSymbol1044" x="306.25" y="612.5" fill="#002acb"></use></g><g><use xlink:href="#SvgjsSymbol1042" x="525" y="481.25" fill="#5955ff"></use><use xlink:href="#SvgjsSymbol1043" x="525" y="481.25" fill="#9583ff"></use><use xlink:href="#SvgjsSymbol1044" x="525" y="481.25" fill="#002acb"></use></g><g><use xlink:href="#SvgjsSymbol1042" x="525" y="393.75" fill="#5955ff"></use><use xlink:href="#SvgjsSymbol1043" x="525" y="393.75" fill="#9583ff"></use><use xlink:href="#SvgjsSymbol1044" x="525" y="393.75" fill="#002acb"></use></g><g><use xlink:href="#SvgjsSymbol1042" x="525" y="306.25" fill="#5955ff"></use><use xlink:href="#SvgjsSymbol1043" x="525" y="306.25" fill="#9583ff"></use><use xlink:href="#SvgjsSymbol1044" x="525" y="306.25" fill="#002acb"></use></g><g><use xlink:href="#SvgjsSymbol1042" x="612.5" y="175" fill="#5955ff"></use><use xlink:href="#SvgjsSymbol1043" x="612.5" y="175" fill="#9583ff"></use><use xlink:href="#SvgjsSymbol1044" x="612.5" y="175" fill="#002acb"></use></g><g><use xlink:href="#SvgjsSymbol1042" x="525" y="218.75" fill="#5955ff"></use><use xlink:href="#SvgjsSymbol1043" x="525" y="218.75" fill="#9583ff"></use><use xlink:href="#SvgjsSymbol1044" x="525" y="218.75" fill="#002acb"></use></g><g><use xlink:href="#SvgjsSymbol1042" x="437.5" y="262.5" fill="#5955ff"></use><use xlink:href="#SvgjsSymbol1043" x="437.5" y="262.5" fill="#9583ff"></use><use xlink:href="#SvgjsSymbol1044" x="437.5" y="262.5" fill="#002acb"></use></g><g><use xlink:href="#SvgjsSymbol1042" x="306.25" y="525" fill="#5955ff"></use><use xlink:href="#SvgjsSymbol1043" x="306.25" y="525" fill="#9583ff"></use><use xlink:href="#SvgjsSymbol1044" x="306.25" y="525" fill="#002acb"></use></g><g><use xlink:href="#SvgjsSymbol1042" x="306.25" y="437.5" fill="#5955ff"></use><use xlink:href="#SvgjsSymbol1043" x="306.25" y="437.5" fill="#9583ff"></use><use xlink:href="#SvgjsSymbol1044" x="306.25" y="437.5" fill="#002acb"></use></g><g><use xlink:href="#SvgjsSymbol1042" x="306.25" y="350" fill="#5955ff"></use><use xlink:href="#SvgjsSymbol1043" x="306.25" y="350" fill="#9583ff"></use><use xlink:href="#SvgjsSymbol1044" x="306.25" y="350" fill="#002acb"></use></g><g><use xlink:href="#SvgjsSymbol1042" x="306.25" y="262.5" fill="#5955ff"></use><use xlink:href="#SvgjsSymbol1043" x="306.25" y="262.5" fill="#9583ff"></use><use xlink:href="#SvgjsSymbol1044" x="306.25" y="262.5" fill="#002acb"></use></g><g><use xlink:href="#SvgjsSymbol1042" x="481.25" y="87.5" fill="#5955ff"></use><use xlink:href="#SvgjsSymbol1043" x="481.25" y="87.5" fill="#9583ff"></use><use xlink:href="#SvgjsSymbol1044" x="481.25" y="87.5" fill="#002acb"></use></g><g><use xlink:href="#SvgjsSymbol1042" x="393.75" y="131.25" fill="#5955ff"></use><use xlink:href="#SvgjsSymbol1043" x="393.75" y="131.25" fill="#9583ff"></use><use xlink:href="#SvgjsSymbol1044" x="393.75" y="131.25" fill="#002acb"></use></g><g><use xlink:href="#SvgjsSymbol1042" x="306.25" y="175" fill="#5955ff"></use><use xlink:href="#SvgjsSymbol1043" x="306.25" y="175" fill="#9583ff"></use><use xlink:href="#SvgjsSymbol1044" x="306.25" y="175" fill="#002acb"></use></g><g><use xlink:href="#SvgjsSymbol1042" x="218.75" y="218.75" fill="#5955ff"></use><use xlink:href="#SvgjsSymbol1043" x="218.75" y="218.75" fill="#9583ff"></use><use xlink:href="#SvgjsSymbol1044" x="218.75" y="218.75" fill="#002acb"></use></g><g><use xlink:href="#SvgjsSymbol1042" x="131.25" y="262.5" fill="#5955ff"></use><use xlink:href="#SvgjsSymbol1043" x="131.25" y="262.5" fill="#9583ff"></use><use xlink:href="#SvgjsSymbol1044" x="131.25" y="262.5" fill="#002acb"></use></g></g><g></g></svg>