<svg width="182" height="42" viewBox="0 0 182 42" fill="none" xmlns="http://www.w3.org/2000/svg">
<path d="M56.128 32V13.696H48.576V9.6H68.288V13.696H60.768V32H56.128ZM69.228 32V15.328H73.612V17.184C74.1453 16.4587 74.7853 15.904 75.532 15.52C76.2787 15.136 77.1213 14.944 78.06 14.944C78.8707 14.9653 79.4787 15.0933 79.884 15.328V19.168C79.564 19.0187 79.212 18.912 78.828 18.848C78.444 18.7627 78.0493 18.72 77.644 18.72C76.7907 18.72 76.012 18.9333 75.308 19.36C74.604 19.7867 74.0387 20.3947 73.612 21.184V32H69.228ZM88.6608 32.32C87.3808 32.32 86.2394 32.0427 85.2368 31.488C84.2554 30.912 83.4768 30.1227 82.9008 29.12C82.3461 28.1173 82.0688 26.9653 82.0688 25.664V15.328H86.4528V25.024C86.4528 26.0907 86.7621 26.944 87.3808 27.584C88.0208 28.224 88.8741 28.544 89.9408 28.544C90.6661 28.544 91.3168 28.4053 91.8928 28.128C92.4901 27.8293 92.9808 27.4133 93.3648 26.88V15.328H97.7488V32H93.3648V30.656C92.0848 31.7653 90.5168 32.32 88.6608 32.32ZM109.326 32.32C107.662 32.32 106.147 31.936 104.782 31.168C103.438 30.4 102.371 29.3653 101.582 28.064C100.792 26.7627 100.398 25.3013 100.398 23.68C100.398 22.0587 100.771 20.5973 101.518 19.296C102.286 17.9947 103.32 16.96 104.622 16.192C105.923 15.424 107.374 15.04 108.974 15.04C110.574 15.04 111.992 15.4347 113.23 16.224C114.467 17.0133 115.438 18.08 116.142 19.424C116.867 20.768 117.23 22.2933 117.23 24V25.152H104.878C105.07 25.8133 105.379 26.4107 105.806 26.944C106.254 27.4773 106.798 27.8933 107.438 28.192C108.099 28.4907 108.803 28.64 109.55 28.64C110.296 28.64 110.979 28.5227 111.598 28.288C112.238 28.0533 112.782 27.7227 113.23 27.296L116.11 29.92C115.086 30.752 114.03 31.36 112.942 31.744C111.875 32.128 110.67 32.32 109.326 32.32ZM104.814 22.016H112.91C112.76 21.3547 112.483 20.7787 112.078 20.288C111.694 19.776 111.224 19.3813 110.67 19.104C110.136 18.8053 109.539 18.656 108.878 18.656C108.195 18.656 107.576 18.7947 107.022 19.072C106.467 19.3493 105.998 19.744 105.614 20.256C105.251 20.7467 104.984 21.3333 104.814 22.016ZM123.784 32V13.696H116.232V9.6H135.944V13.696H128.424V32H123.784ZM142.638 32.32C140.974 32.32 139.459 31.936 138.094 31.168C136.75 30.4 135.683 29.3653 134.894 28.064C134.105 26.7627 133.71 25.3013 133.71 23.68C133.71 22.0587 134.083 20.5973 134.83 19.296C135.598 17.9947 136.633 16.96 137.934 16.192C139.235 15.424 140.686 15.04 142.286 15.04C143.886 15.04 145.305 15.4347 146.542 16.224C147.779 17.0133 148.75 18.08 149.454 19.424C150.179 20.768 150.542 22.2933 150.542 24V25.152H138.19C138.382 25.8133 138.691 26.4107 139.118 26.944C139.566 27.4773 140.11 27.8933 140.75 28.192C141.411 28.4907 142.115 28.64 142.862 28.64C143.609 28.64 144.291 28.5227 144.91 28.288C145.55 28.0533 146.094 27.7227 146.542 27.296L149.422 29.92C148.398 30.752 147.342 31.36 146.254 31.744C145.187 32.128 143.982 32.32 142.638 32.32ZM138.126 22.016H146.222C146.073 21.3547 145.795 20.7787 145.39 20.288C145.006 19.776 144.537 19.3813 143.982 19.104C143.449 18.8053 142.851 18.656 142.19 18.656C141.507 18.656 140.889 18.7947 140.334 19.072C139.779 19.3493 139.31 19.744 138.926 20.256C138.563 20.7467 138.297 21.3333 138.126 22.016ZM150.186 32L156.586 23.52L150.346 15.328H155.434L159.114 20.288L162.762 15.328H167.69L161.546 23.456L168.074 32H162.954L159.018 26.688L155.082 32H150.186ZM177.32 32.256C175.464 32.256 174.056 31.84 173.096 31.008C172.157 30.1547 171.688 28.9173 171.688 27.296V18.976H168.264V15.328H171.688V11.072L176.072 10.08V15.328H180.84V18.976H176.072V26.4C176.072 27.168 176.242 27.7227 176.584 28.064C176.925 28.384 177.522 28.544 178.376 28.544C178.802 28.544 179.186 28.5227 179.528 28.48C179.89 28.416 180.285 28.3093 180.712 28.16V31.776C180.264 31.9253 179.698 32.0427 179.016 32.128C178.354 32.2133 177.789 32.256 177.32 32.256Z" fill="#5955FF"/>
<g clip-path="url(#clip0_122_2)">
<path d="M12.423 27.716H4.81665V36.2243H12.423V27.716Z" fill="white"/>
<path d="M36.2653 4.77567H28.618V11.521H36.2653V4.77567Z" fill="white"/>
<path d="M31.98 0H9.02C4.03839 0 0 4.03839 0 9.02V31.98C0 36.9616 4.03839 41 9.02 41H31.98C36.9616 41 41 36.9616 41 31.98V9.02C41 4.03839 36.9616 0 31.98 0Z" fill="#5955FF"/>
<path d="M15.3533 32.3732V11.8629H7.04095V8.72028H27.213V11.8629H18.901V32.3732H15.3533Z" fill="white"/>
<path d="M25.7837 32.3547V19.1831H20.3491V16.236H34.5351V19.1831H29.1231V32.3547H25.7837Z" fill="white"/>
</g>
<defs>
<clipPath id="clip0_122_2">
<rect width="41" height="41" fill="white"/>
</clipPath>
</defs>
</svg>
